<svg xmlns="http://www.w3.org/2000/svg" width="820" height="580" viewBox="0 0 820 580" font-family="ui-monospace,SFMono-Regular,Menlo,Consolas,monospace" font-size="13">
<rect width="820" height="580" rx="12" fill="#ffffff"/>
<style>.t{fill:#24292f}.s{fill:#57606a}.b{font-weight:bold}</style>
<rect x="40" y="40" width="250" height="500" rx="8" fill="#f6f8fa" stroke="#1f6feb" stroke-width="2"/>
<text x="56" y="70" class="t b" font-size="15">NUCLEO-F103RB</text>
<rect x="560" y="40" width="220" height="300" rx="8" fill="#fff6f6" stroke="#cf222e" stroke-width="2"/>
<text x="764" y="70" class="t b" text-anchor="end" font-size="15">7-segment</text>
<text x="764" y="88" class="s" text-anchor="end">common anode</text>
<rect x="560" y="364" width="220" height="176" rx="8" fill="#f5fbf6" stroke="#1a7f37" stroke-width="2"/>
<text x="764" y="394" class="t b" text-anchor="end" font-size="15">HW-040</text>
<text x="764" y="412" class="s" text-anchor="end">rotary encoder</text>
<line x1="690" y1="122" x2="736" y2="122" stroke="#cf222e" stroke-width="8" stroke-linecap="round"/>
<line x1="740" y1="126" x2="740" y2="168" stroke="#cf222e" stroke-width="8" stroke-linecap="round"/>
<line x1="740" y1="176" x2="740" y2="218" stroke="#cf222e" stroke-width="8" stroke-linecap="round"/>
<line x1="690" y1="222" x2="736" y2="222" stroke="#cf222e" stroke-width="8" stroke-linecap="round"/>
<line x1="686" y1="176" x2="686" y2="218" stroke="#cf222e" stroke-width="8" stroke-linecap="round"/>
<line x1="686" y1="126" x2="686" y2="168" stroke="#cf222e" stroke-width="8" stroke-linecap="round"/>
<line x1="690" y1="172" x2="736" y2="172" stroke="#cf222e" stroke-width="8" stroke-linecap="round"/>
<text x="56" y="104" class="s">CN7-38</text>
<text x="276" y="104" class="t b" text-anchor="end">PC0</text>
<circle cx="290" cy="100" r="4" fill="#1f6feb"/>
<path d="M290 100 H560" stroke="#8250df" stroke-width="2" fill="none"/>
<circle cx="560" cy="100" r="4" fill="#cf222e"/>
<text x="574" y="104" class="t">a</text>
<text x="56" y="134" class="s">CN7-36</text>
<text x="276" y="134" class="t b" text-anchor="end">PC1</text>
<circle cx="290" cy="130" r="4" fill="#1f6feb"/>
<path d="M290 130 H560" stroke="#0969da" stroke-width="2" fill="none"/>
<circle cx="560" cy="130" r="4" fill="#cf222e"/>
<text x="574" y="134" class="t">b</text>
<text x="56" y="164" class="s">CN7-35</text>
<text x="276" y="164" class="t b" text-anchor="end">PC2</text>
<circle cx="290" cy="160" r="4" fill="#1f6feb"/>
<path d="M290 160 H560" stroke="#1a7f37" stroke-width="2" fill="none"/>
<circle cx="560" cy="160" r="4" fill="#cf222e"/>
<text x="574" y="164" class="t">c</text>
<text x="56" y="194" class="s">CN7-37</text>
<text x="276" y="194" class="t b" text-anchor="end">PC3</text>
<circle cx="290" cy="190" r="4" fill="#1f6feb"/>
<path d="M290 190 H560" stroke="#bf8700" stroke-width="2" fill="none"/>
<circle cx="560" cy="190" r="4" fill="#cf222e"/>
<text x="574" y="194" class="t">d</text>
<text x="56" y="224" class="s">CN10-34</text>
<text x="276" y="224" class="t b" text-anchor="end">PC4</text>
<circle cx="290" cy="220" r="4" fill="#1f6feb"/>
<path d="M290 220 H560" stroke="#cf222e" stroke-width="2" fill="none"/>
<circle cx="560" cy="220" r="4" fill="#cf222e"/>
<text x="574" y="224" class="t">e</text>
<text x="56" y="254" class="s">CN10-6</text>
<text x="276" y="254" class="t b" text-anchor="end">PC5</text>
<circle cx="290" cy="250" r="4" fill="#1f6feb"/>
<path d="M290 250 H560" stroke="#953800" stroke-width="2" fill="none"/>
<circle cx="560" cy="250" r="4" fill="#cf222e"/>
<text x="574" y="254" class="t">f</text>
<text x="56" y="284" class="s">CN10-4</text>
<text x="276" y="284" class="t b" text-anchor="end">PC6</text>
<circle cx="290" cy="280" r="4" fill="#1f6feb"/>
<path d="M290 280 H560" stroke="#57606a" stroke-width="2" fill="none"/>
<circle cx="560" cy="280" r="4" fill="#cf222e"/>
<text x="574" y="284" class="t">g</text>
<text x="56" y="428" class="s">D7 · TIM1_CH1</text>
<text x="276" y="428" class="t b" text-anchor="end">PA8</text>
<circle cx="290" cy="424" r="4" fill="#1f6feb"/>
<path d="M290 424 H560" stroke="#1a7f37" stroke-width="2" fill="none"/>
<circle cx="560" cy="424" r="4" fill="#1a7f37"/>
<text x="574" y="428" class="t">CLK</text>
<text x="56" y="458" class="s">D8 · TIM1_CH2</text>
<text x="276" y="458" class="t b" text-anchor="end">PA9</text>
<circle cx="290" cy="454" r="4" fill="#1f6feb"/>
<path d="M290 454 H560" stroke="#0969da" stroke-width="2" fill="none"/>
<circle cx="560" cy="454" r="4" fill="#1a7f37"/>
<text x="574" y="458" class="t">DT</text>
<text x="56" y="488" class="s">CN6-4</text>
<text x="276" y="488" class="t b" text-anchor="end">3V3</text>
<circle cx="290" cy="484" r="4" fill="#1f6feb"/>
<path d="M290 484 H560" stroke="#cf222e" stroke-width="2" fill="none"/>
<circle cx="560" cy="484" r="4" fill="#1a7f37"/>
<text x="574" y="488" class="t">+</text>
<text x="56" y="518" class="s">CN6-6</text>
<text x="276" y="518" class="t b" text-anchor="end">GND</text>
<circle cx="290" cy="514" r="4" fill="#1f6feb"/>
<path d="M290 514 H560" stroke="#24292f" stroke-width="2" fill="none"/>
<circle cx="560" cy="514" r="4" fill="#1a7f37"/>
<text x="574" y="518" class="t">GND</text>
<path d="M524 484 V314 H560" stroke="#cf222e" stroke-width="2" fill="none"/>
<circle cx="524" cy="484" r="3.5" fill="#cf222e"/>
<circle cx="560" cy="314" r="4" fill="#cf222e"/>
<text x="574" y="318" class="t">COM</text>
</svg>
